<?xml version="1.0" encoding="UTF-8" standalone="no"?>
<!-- Created with Inkscape (http://www.inkscape.org/) -->

<svg
   xmlns:dc="http://purl.org/dc/elements/1.1/"
   xmlns:cc="http://creativecommons.org/ns#"
   xmlns:rdf="http://www.w3.org/1999/02/22-rdf-syntax-ns#"
   xmlns:svg="http://www.w3.org/2000/svg"
   xmlns="http://www.w3.org/2000/svg"
   xmlns:xlink="http://www.w3.org/1999/xlink"
   xmlns:inkscape="http://www.inkscape.org/namespaces/inkscape"
   version="1.0"
   width="256"
   height="256"
   id="svg2486">
  <metadata
     id="metadata18">
    <rdf:RDF>
      <cc:Work
         rdf:about="">
        <dc:format>image/svg+xml</dc:format>
        <dc:type
           rdf:resource="http://purl.org/dc/dcmitype/StillImage" />
      </cc:Work>
    </rdf:RDF>
  </metadata>
  <defs
     id="defs2426">
    <linearGradient
       x1="112.49854"
       y1="6.1372099"
       x2="112.49853"
       y2="129.3468"
       id="path1082_2_"
       gradientUnits="userSpaceOnUse"
       gradientTransform="translate(287,-83)">
      <stop
         id="stop193"
         style="stop-color:#ffffff;stop-opacity:0"
         offset="0" />
      <stop
         id="stop195"
         style="stop-color:#ffffff;stop-opacity:0.27450982"
         offset="1" />
      <midPointStop
         id="midPointStop197"
         style="stop-color:#FFFFFF"
         offset="0" />
      <midPointStop
         id="midPointStop199"
         style="stop-color:#FFFFFF"
         offset="0.5" />
      <midPointStop
         id="midPointStop201"
         style="stop-color:#000000"
         offset="1" />
    </linearGradient>
    <linearGradient
       x1="541.33502"
       y1="104.50665"
       x2="606.91248"
       y2="303.14029"
       id="linearGradient2544"
       xlink:href="#path1082_2_"
       gradientUnits="userSpaceOnUse"
       gradientTransform="matrix(-0.6066055,0,0,0.6065715,524.31501,9.2325237)" />
  </defs>
  <g
     transform="translate(-57.51784,-56.601259)"
     id="layer1">
    <g
       transform="matrix(0.8746356,0,0,0.8746356,14.730518,23.408954)"
       id="g2424">
      <path
         d="M 128,0 C 116.60517,27.937051 109.68663,46.237167 97,73.34375 104.77849,81.588954 114.33826,91.155507 129.84375,102 113.17383,95.140422 101.81018,88.271499 93.3125,81.125 77.076032,115.00488 51.621649,163.24639 0,256 c 54.401528,-31.40696 92.428254,-46.69603 130.84375,-45.90625 -1.75053,-0.54751 -3.39626,-1.58972 -4.125,-2.6875 -1.86004,-2.80198 -1.73922,-1.82631 -1.8125,-16.28125 -0.0365,-7.19479 -0.14457,-13.33368 -0.21875,-13.65625 -0.12911,-0.56131 -0.27954,-0.58526 -3.375,-0.65625 -3.22357,-0.0739 -3.21875,-0.0822 -3.21875,-0.71875 0,-0.4802 0.18514,-0.69489 0.78125,-0.875 2.57484,-0.77798 5.21073,-2.34621 6.875,-4.09375 3.02574,-3.17712 5.39198,-8.9411 5.40625,-13.1875 0.003,-0.75119 0.0993,-1.58258 0.1875,-1.8125 0.21709,-0.56575 1.81415,-0.56575 2.03125,0 0.0882,0.22991 0.1875,4.28804 0.1875,9 l 0,8.5625 4.875,0 4.90625,0 -0.0625,1.53125 -0.0937,1.5 -4.8125,0.0937 -4.8125,0.0625 -0.0312,13.40625 c -0.0326,15.60549 -0.0633,14.66343 0.5625,16.09375 1.13921,2.60391 4.11645,2.94293 6.21875,0.6875 1.39543,-1.49708 1.75681,-3.34385 1.90625,-10.0625 l 0.125,-5.875 0.75,0 0.75,0 0,5.90625 c 0,3.24366 -0.1247,6.6063 -0.28125,7.46875 -0.50518,2.78282 -2.0132,4.65569 -4.40625,5.5 -0.47619,0.16801 -1.20334,0.28095 -2,0.375 34.53471,2.28664 70.12013,17.49597 118.84375,45.625 -7.89193,-14.52961 -14.96051,-27.61983 -21.6875,-40.09375 -10.5961,-8.21269 -21.64301,-18.89743 -44.1875,-30.46875 15.4958,4.02645 26.60184,8.6825 35.25,13.875 C 156.97985,71.972668 151.45422,55.040373 128,0 z M 75.5625,154.1875 c 3.628723,-4.5e-4 8.308537,-0.0153 14.34375,0 l 26.59375,0.0937 0.0625,10.875 c 0.0661,10.4313 0.0675,10.88088 -0.40625,11.03125 -0.93444,0.29658 -1.3741,-0.11217 -1.375,-1.28125 -0.001,-1.39618 -0.695,-5.50115 -1.1875,-6.96875 -0.37661,-1.12222 -1.74428,-4.00645 -2.84375,-6 -0.77194,-1.39972 -3.87199,-4.40092 -5.28125,-5.125 -2.16789,-1.11387 -3.72392,-1.34081 -8.90625,-1.34375 -4.942985,-0.003 -8.664883,0.41608 -9.75,1.09375 -0.293754,0.18344 -0.607488,0.5771 -0.6875,0.875 -0.08003,0.2979 -0.154265,5.38952 -0.15625,11.3125 -0.0028,8.42656 0.08527,10.75986 0.34375,10.78125 3.046327,0.25216 8.100692,-0.42107 9.71875,-1.28125 2.527602,-1.34368 4.32148,-5.99891 5.15625,-13.5 0.17888,-1.60749 0.20072,-1.6406 0.875,-1.5625 l 0.6875,0.0625 0.0937,17.125 0.0625,17.09375 -0.8125,0 -0.78125,0 0,-1.78125 c -0.006,-2.31064 -0.65716,-6.74405 -1.21875,-8.40625 -1.073113,-3.17622 -2.165189,-4.35898 -4.78125,-5.1875 -1.783664,-0.56488 -7.565431,-1.17219 -8.625,-0.90625 L 85.96875,181.375 86,193.84375 c 0.0069,10.19747 0.07688,12.57547 0.375,12.96875 0.565317,0.74579 2.405339,1.16965 5.84375,1.34375 1.731738,0.0877 4.061039,0.22555 5.1875,0.3125 1.940745,0.14979 2.0625,0.18126 2.0625,0.78125 l 0,0.65625 -18.125,0 c -15.589324,1e-5 -18.123248,-0.0759 -18.25,-0.40625 -0.337275,-0.8789 0.09439,-0.95057 5.84375,-1.3125 2.758273,-0.17363 4.566657,-0.59208 5.21875,-1.15625 0.434315,-0.37576 0.46875,-1.89426 0.46875,-25.15625 l 0,-24.78125 -0.65625,-0.4375 c -0.874427,-0.57293 -5.213265,-1.18554 -8.25,-1.1875 -2.457943,-0.002 -2.854821,-0.14446 -2.5625,-0.90625 0.110112,-0.28695 1.52008,-0.37365 12.40625,-0.375 z m 99.75,18.5 c 0.7701,0.0195 1.463,0.0926 1.96875,0.1875 3.40832,0.63921 6.20257,2.76415 7.65625,5.84375 l 0.78125,1.71875 0.15625,13.53125 c 0.0939,9.3492 0.23592,13.6112 0.4375,13.8125 0.16047,0.16024 1.46787,0.41246 2.90625,0.5625 1.43838,0.15003 2.86047,0.34334 3.1875,0.40625 0.6836,0.13151 0.80602,0.76265 0.1875,1 -0.77184,0.29617 -44.72168,0.17364 -44.90625,-0.125 -0.35358,-0.5721 0.45351,-1.05276 1.8125,-1.0625 1.93317,-0.0139 4.78328,-0.62703 5.28125,-1.125 0.37926,-0.37925 0.4375,-1.98563 0.4375,-15.1875 1e-5,-15.56368 -0.007,-15.80396 -1.1875,-16.4375 -0.29654,-0.15915 -1.79217,-0.36798 -3.3125,-0.46875 -2.54058,-0.1684 -2.77071,-0.23838 -2.84375,-0.75 -0.0701,-0.49051 0.0781,-0.58241 1.3125,-0.71875 3.81887,-0.42182 13.87956,-1.06039 14.28125,-0.90625 0.39888,0.15308 0.46875,0.57229 0.46875,3.34375 1e-5,1.94352 0.11971,3.1875 0.28125,3.1875 0.14534,-1e-5 0.25,-0.13954 0.25,-0.3125 -1e-5,-0.17295 0.49622,-1.1048 1.09375,-2.09375 1.1162,-1.84738 2.28287,-3.08722 3.625,-3.78125 0.79102,-0.40906 3.81469,-0.68357 6.125,-0.625 z m -2.59375,1.53125 c -3.33804,0.0157 -6.15457,3.17087 -7.6875,8.59375 -1.00157,3.54307 -1.1089,4.99974 -1.03125,15.0625 l 0.0625,9.78125 0.96875,0.3125 c 2.36846,0.77577 5.49406,0.88956 9.34375,0.3125 3.03268,-0.45458 2.79063,0.83637 2.78125,-13.9375 -0.005,-7.06324 -0.14471,-13.73015 -0.28125,-14.78125 -0.44846,-3.45226 -1.91448,-5.35429 -4.15625,-5.34375 z"
         inkscape:connector-curvature="0"
         transform="matrix(1.1433333,0,0,1.1433333,48.92017,37.949867)"
         id="path2518"
         style="fill:#665948;fill-opacity:1;fill-rule:evenodd;stroke:none" />
      <path
         d="M 277.64601,211.9169 C 214.20638,125.81103 199.50175,56.412315 195.77712,39.843809 c 33.84054,78.054531 33.6094,79.011711 81.86889,172.073091 z"
         inkscape:connector-curvature="0"
         id="path2522"
         style="fill:#ffffff;fill-opacity:0.16568047;fill-rule:evenodd;stroke:none" />
      <path
         d="m 128.46875,1.09375 c -1.42338,3.4991832 -2.81007,6.8947565 -4.125,10.125 -1.45671,3.578408 -2.84196,6.99457 -4.21875,10.34375 -1.37667,3.349221 -2.74109,6.617678 -4.09375,9.84375 -1.35275,3.226219 -2.70913,6.415755 -4.09375,9.625 -1.38453,3.209121 -2.77769,6.451805 -4.25,9.75 -1.47231,3.298304 -3.00915,6.662798 -4.625,10.15625 -1.61599,3.493487 -3.309697,7.111612 -5.125,10.90625 -0.251437,0.525579 -0.556619,1.123732 -0.8125,1.65625 7.75455,8.213222 17.30152,17.717236 32.71875,28.5 -16.62707,-6.841946 -27.9782,-13.685794 -36.46875,-20.8125 -0.440819,0.899926 -0.827105,1.703498 -1.28125,2.625 -0.597753,1.212962 -1.315459,2.59119 -1.9375,3.84375 -0.315418,0.646728 -0.646513,1.342488 -0.96875,2 -8.031878,16.38875 -18.342947,36.42086 -32.21875,62.375 32.465597,-18.29162 67.48339,-44.68199 131.09375,-21.96875 -3.18932,-6.0405 -6.12134,-11.70535 -8.875,-17.03125 C 176.43388,107.70518 173.87554,102.71647 171.5,98 c -2.37536,-4.716368 -4.57043,-9.163042 -6.625,-13.375 -2.05455,-4.21186 -3.959,-8.187269 -5.75,-12 -1.7911,-3.812642 -3.47764,-7.481436 -5.0625,-11 -1.58496,-3.518519 -3.09501,-6.889309 -4.53125,-10.21875 -1.43639,-3.329616 -2.81139,-6.598304 -4.15625,-9.84375 -1.34499,-3.245541 -2.65791,-6.483239 -3.96875,-9.75 -0.33293,-0.829513 -0.66696,-1.696124 -1,-2.53125 -3.72832,-8.739675 -7.50706,-17.78017 -11.9375,-28.1875 z"
         inkscape:connector-curvature="0"
         transform="matrix(1.1433333,0,0,1.1433333,48.92017,37.949867)"
         id="path2520"
         style="fill:url(#linearGradient2544);fill-opacity:1;fill-rule:evenodd;stroke:none" />
    </g>
  </g>
</svg>
