<?xml version="1.0" encoding="utf-8"?>
<!-- Generator: Adobe Illustrator 15.1.0, SVG Export Plug-In . SVG Version: 6.00 Build 0)  -->
<!DOCTYPE svg PUBLIC "-//W3C//DTD SVG 1.1//EN" "http://www.w3.org/Graphics/SVG/1.1/DTD/svg11.dtd">
<svg version="1.1" xmlns="http://www.w3.org/2000/svg" xmlns:xlink="http://www.w3.org/1999/xlink" x="0px" y="0px"
	 width="1596.16px" height="1050.105px" viewBox="0 0 1596.16 1050.105" enable-background="new 0 0 1596.16 1050.105"
	 xml:space="preserve">
<g id="Layer_2">
	<rect x="-40.763" y="-183.768" fill="#7B6A58" stroke="#A48A7B" stroke-miterlimit="10" width="1778" height="1542"/>
</g>
<g id="Layer_1">
	<g>
		<rect x="568.605" y="235.727" fill="none" width="243.416" height="129.663"/>
		<path fill="#FFFFFF" stroke="#FFFFFF" stroke-miterlimit="10" d="M646.793,294.918c-2.663,1.375-8.247,2.749-15.291,2.749
			c-16.323,0-28.521-10.309-28.521-29.38c0-18.212,12.284-30.411,30.239-30.411c7.13,0,11.77,1.546,13.745,2.577l-1.89,6.1
			c-2.749-1.375-6.787-2.406-11.598-2.406c-13.573,0-22.594,8.677-22.594,23.882c0,14.261,8.161,23.281,22.164,23.281
			c4.639,0,9.278-0.945,12.284-2.405L646.793,294.918z"/>
		<path fill="#FFFFFF" stroke="#FFFFFF" stroke-miterlimit="10" d="M655.73,268.116c0-4.897-0.086-9.106-0.344-12.972H662
			l0.344,8.247h0.258c1.891-5.584,6.529-9.106,11.598-9.106c0.773,0,1.375,0.086,2.062,0.172v7.13
			c-0.772-0.172-1.546-0.172-2.577-0.172c-5.326,0-9.105,3.952-10.137,9.622c-0.172,1.031-0.258,2.319-0.258,3.522v22.164h-7.56
			V268.116z"/>
		<path fill="#FFFFFF" stroke="#FFFFFF" stroke-miterlimit="10" d="M700.938,292.779v2.905l-14.172,29.647h-4.558l14.122-28.795
			v-0.101h-15.925v-3.656H700.938z"/>
		<path fill="#FFFFFF" stroke="#FFFFFF" stroke-miterlimit="10" d="M709.774,296.723v-57.901h8.247l18.47,29.294
			c4.209,6.787,7.646,12.886,10.309,18.813l0.258-0.086c-0.688-7.731-0.859-14.776-0.859-23.796v-24.226h7.045v57.901h-7.56
			l-18.385-29.38c-4.037-6.443-7.903-13.058-10.738-19.329l-0.258,0.086c0.43,7.302,0.516,14.261,0.516,23.882v24.741H709.774z"/>
		<path fill="#FFFFFF" stroke="#FFFFFF" stroke-miterlimit="10" d="M775.323,243.46c0,2.577-1.805,4.639-4.812,4.639
			c-2.749,0-4.553-2.062-4.553-4.639s1.89-4.725,4.725-4.725C773.432,238.735,775.323,240.797,775.323,243.46z M766.904,296.723
			v-41.579h7.56v41.579H766.904z"/>
	</g>
	<g>
		<rect x="952.423" y="235.727" fill="none" width="243.416" height="129.663"/>
		<path fill="#FFFFFF" stroke="#FFFFFF" stroke-miterlimit="10" d="M1021.764,294.918c-2.663,1.375-8.247,2.749-15.291,2.749
			c-16.323,0-28.521-10.309-28.521-29.38c0-18.212,12.284-30.411,30.239-30.411c7.13,0,11.77,1.546,13.745,2.577l-1.89,6.1
			c-2.749-1.375-6.787-2.406-11.598-2.406c-13.573,0-22.594,8.677-22.594,23.882c0,14.261,8.161,23.281,22.164,23.281
			c4.639,0,9.278-0.945,12.284-2.405L1021.764,294.918z"/>
		<path fill="#FFFFFF" stroke="#FFFFFF" stroke-miterlimit="10" d="M1030.701,268.116c0-4.897-0.086-9.106-0.344-12.972h6.614
			l0.344,8.247h0.258c1.891-5.584,6.529-9.106,11.598-9.106c0.773,0,1.375,0.086,2.062,0.172v7.13
			c-0.772-0.172-1.546-0.172-2.577-0.172c-5.326,0-9.105,3.952-10.137,9.622c-0.172,1.031-0.258,2.319-0.258,3.522v22.164h-7.56
			V268.116z"/>
		<path fill="#FFFFFF" stroke="#FFFFFF" stroke-miterlimit="10" d="M1075.909,292.779v2.905l-14.172,29.647h-4.558l14.122-28.795
			v-0.101h-15.925v-3.656H1075.909z"/>
		<path fill="#FFFFFF" stroke="#FFFFFF" stroke-miterlimit="10" d="M1080.792,292.341l32.043-46.991v-0.257h-29.294v-6.271h39.088
			v4.553l-31.958,46.819v0.258h32.388v6.271h-42.267V292.341z"/>
		<path fill="#FFFFFF" stroke="#FFFFFF" stroke-miterlimit="10" d="M1131.996,266.397c0-4.381-0.086-7.817-0.344-11.254h6.7
			l0.43,6.873h0.172c2.062-3.866,6.873-7.731,13.745-7.731c5.756,0,14.69,3.436,14.69,17.697v24.741h-7.56v-23.968
			c0-6.701-2.491-12.285-9.622-12.285c-4.896,0-8.763,3.522-10.137,7.732c-0.344,0.945-0.516,2.233-0.516,3.522v24.999h-7.56
			V266.397z"/>
	</g>
	<g>
		<rect x="1284.137" y="235.727" fill="none" width="243.416" height="129.663"/>
		<path fill="#FFFFFF" stroke="#FFFFFF" stroke-miterlimit="10" d="M1342.18,294.918c-2.663,1.375-8.247,2.749-15.291,2.749
			c-16.323,0-28.521-10.309-28.521-29.38c0-18.212,12.284-30.411,30.239-30.411c7.13,0,11.77,1.546,13.745,2.577l-1.89,6.1
			c-2.749-1.375-6.787-2.406-11.598-2.406c-13.573,0-22.594,8.677-22.594,23.882c0,14.261,8.161,23.281,22.164,23.281
			c4.639,0,9.278-0.945,12.284-2.405L1342.18,294.918z"/>
		<path fill="#FFFFFF" stroke="#FFFFFF" stroke-miterlimit="10" d="M1351.117,268.116c0-4.897-0.086-9.106-0.344-12.972h6.614
			l0.344,8.247h0.258c1.891-5.584,6.529-9.106,11.598-9.106c0.773,0,1.375,0.086,2.062,0.172v7.13
			c-0.772-0.172-1.546-0.172-2.577-0.172c-5.326,0-9.105,3.952-10.137,9.622c-0.172,1.031-0.258,2.319-0.258,3.522v22.164h-7.56
			V268.116z"/>
		<path fill="#FFFFFF" stroke="#FFFFFF" stroke-miterlimit="10" d="M1396.325,292.779v2.905l-14.172,29.647h-4.558l14.122-28.795
			v-0.101h-15.925v-3.656H1396.325z"/>
		<path fill="#FFFFFF" stroke="#FFFFFF" stroke-miterlimit="10" d="M1453.956,271.294c-0.43-8.076-0.945-17.869-0.945-24.999h-0.172
			c-2.062,6.701-4.381,14.003-7.302,21.992l-10.223,28.091h-5.67l-9.45-27.576c-2.749-8.247-4.982-15.635-6.614-22.507h-0.172
			c-0.172,7.216-0.602,16.837-1.117,25.6l-1.546,24.827h-7.131l4.038-57.901h9.535l9.88,28.006
			c2.405,7.13,4.295,13.487,5.842,19.501h0.171c1.547-5.842,3.608-12.199,6.186-19.501l10.309-28.006h9.536l3.608,57.901h-7.389
			L1453.956,271.294z"/>
		<path fill="#FFFFFF" stroke="#FFFFFF" stroke-miterlimit="10" d="M1475.004,266.397c0-4.381-0.086-7.817-0.344-11.254h6.7
			l0.43,6.873h0.172c2.062-3.866,6.873-7.731,13.745-7.731c5.756,0,14.69,3.436,14.69,17.697v24.741h-7.56v-23.968
			c0-6.701-2.492-12.285-9.622-12.285c-4.896,0-8.763,3.522-10.137,7.732c-0.344,0.945-0.516,2.233-0.516,3.522v24.999h-7.56
			V266.397z"/>
	</g>
	<g>
		<rect x="568.605" y="419.382" fill="none" width="243.416" height="129.663"/>
		<path fill="#FFFFFF" stroke="#FFFFFF" stroke-miterlimit="10" d="M603.173,421.439h5.041v25.834
			c0,10.253-5.041,13.404-11.686,13.404c-1.891,0-4.125-0.401-5.327-0.917l0.688-4.067c1.03,0.401,2.52,0.745,4.238,0.745
			c4.468,0,7.046-2.005,7.046-9.566V421.439z"/>
		<path fill="#FFFFFF" stroke="#FFFFFF" stroke-miterlimit="10" d="M623.104,420.409c-1.317,4.812-3.78,10.998-5.327,13.633
			l-3.208,0.344c1.203-3.379,2.75-9.28,3.38-13.404L623.104,420.409z"/>
		<path fill="#FFFFFF" stroke="#FFFFFF" stroke-miterlimit="10" d="M626.767,440.744v-3.437h29.558v3.437H626.767z M626.767,451.971
			v-3.437h29.558v3.437H626.767z"/>
		<path fill="#FFFFFF" stroke="#FFFFFF" stroke-miterlimit="10" d="M685.992,441.03c0,12.659-4.755,19.647-12.946,19.647
			c-7.274,0-12.258-6.816-12.372-19.132c0-12.544,5.441-19.361,13.003-19.361C681.466,422.184,685.992,429.173,685.992,441.03z
			 M665.771,441.603c0,9.681,2.979,15.18,7.562,15.18c5.098,0,7.561-6.015,7.561-15.523c0-9.165-2.291-15.18-7.561-15.18
			C668.979,426.08,665.771,431.464,665.771,441.603z"/>
		<path fill="#FFFFFF" stroke="#FFFFFF" stroke-miterlimit="10" d="M690.97,457.069c0-2.063,1.433-3.609,3.437-3.609
			c2.005,0,3.38,1.489,3.38,3.609c0,2.062-1.375,3.608-3.494,3.608C692.345,460.677,690.97,459.131,690.97,457.069z"/>
		<path fill="#FFFFFF" stroke="#FFFFFF" stroke-miterlimit="10" d="M726.596,422.814v3.322l-16.21,33.911h-5.213l16.153-32.937
			v-0.114h-18.216v-4.182H726.596z"/>
		<path fill="#FFFFFF" stroke="#FFFFFF" stroke-miterlimit="10" d="M754.03,427.053h-14.206l-1.432,9.566
			c0.859-0.114,1.661-0.172,3.036-0.172c2.921,0,5.728,0.573,8.02,2.005c2.921,1.604,5.327,4.869,5.327,9.509
			c0,7.275-5.786,12.716-13.862,12.716c-4.067,0-7.446-1.146-9.279-2.291l1.26-3.838c1.547,0.917,4.582,2.062,8.02,2.062
			c4.697,0,8.821-3.093,8.764-8.077c0-4.812-3.265-8.191-10.654-8.191c-2.177,0-3.838,0.172-5.213,0.344l2.406-17.872h17.814
			V427.053z"/>
		<path fill="#FFFFFF" stroke="#FFFFFF" stroke-miterlimit="10" d="M762.961,421.439h4.983v18.617h0.172
			c1.031-1.489,2.063-2.864,3.036-4.125l11.8-14.492h6.187l-13.977,16.383l15.064,22.225h-5.899l-12.659-18.96l-3.724,4.239v14.721
			h-4.983V421.439z"/>
	</g>
	<g>
		<rect x="952.423" y="419.382" fill="none" width="243.416" height="129.663"/>
		<path fill="#FFFFFF" stroke="#FFFFFF" stroke-miterlimit="10" d="M1037.823,421.439h5.041v25.834
			c0,10.253-5.041,13.404-11.686,13.404c-1.891,0-4.125-0.401-5.327-0.917l0.687-4.067c1.031,0.401,2.521,0.745,4.239,0.745
			c4.468,0,7.046-2.005,7.046-9.566V421.439z"/>
		<path fill="#FFFFFF" stroke="#FFFFFF" stroke-miterlimit="10" d="M1057.753,420.409c-1.317,4.812-3.78,10.998-5.327,13.633
			l-3.208,0.344c1.203-3.379,2.75-9.28,3.38-13.404L1057.753,420.409z"/>
		<path fill="#FFFFFF" stroke="#FFFFFF" stroke-miterlimit="10" d="M1061.417,440.744v-3.437h29.558v3.437H1061.417z
			 M1061.417,451.971v-3.437h29.558v3.437H1061.417z"/>
		<path fill="#FFFFFF" stroke="#FFFFFF" stroke-miterlimit="10" d="M1120.641,441.03c0,12.659-4.755,19.647-12.946,19.647
			c-7.274,0-12.258-6.816-12.372-19.132c0-12.544,5.441-19.361,13.003-19.361C1116.116,422.184,1120.641,429.173,1120.641,441.03z
			 M1100.42,441.603c0,9.681,2.979,15.18,7.562,15.18c5.098,0,7.561-6.015,7.561-15.523c0-9.165-2.291-15.18-7.561-15.18
			C1103.628,426.08,1100.42,431.464,1100.42,441.603z"/>
	</g>
	<g>
		<rect x="1284.137" y="419.382" fill="none" width="243.416" height="129.663"/>
		<path fill="#FFFFFF" stroke="#FFFFFF" stroke-miterlimit="10" d="M1412.92,442.749v3.666h-14.148v-3.666H1412.92z"/>
	</g>
	<g>
		<rect x="568.605" y="636.151" fill="none" width="243.416" height="129.662"/>
		<path fill="#FFFFFF" stroke="#FFFFFF" stroke-miterlimit="10" d="M697.388,659.516v3.666H683.24v-3.666H697.388z"/>
	</g>
	<g>
		<rect x="952.423" y="636.151" fill="none" width="243.416" height="129.662"/>
		<path fill="#FFFFFF" stroke="#FFFFFF" stroke-miterlimit="10" d="M1037.823,638.208h5.041v25.834
			c0,10.253-5.041,13.403-11.686,13.403c-1.891,0-4.125-0.4-5.327-0.916l0.687-4.067c1.031,0.401,2.521,0.745,4.239,0.745
			c4.468,0,7.046-2.005,7.046-9.566V638.208z"/>
		<path fill="#FFFFFF" stroke="#FFFFFF" stroke-miterlimit="10" d="M1057.753,637.176c-1.317,4.812-3.78,10.998-5.327,13.633
			l-3.208,0.344c1.203-3.38,2.75-9.279,3.38-13.404L1057.753,637.176z"/>
		<path fill="#FFFFFF" stroke="#FFFFFF" stroke-miterlimit="10" d="M1061.417,657.511v-3.438h29.558v3.438H1061.417z
			 M1061.417,668.738v-3.437h29.558v3.437H1061.417z"/>
		<path fill="#FFFFFF" stroke="#FFFFFF" stroke-miterlimit="10" d="M1120.641,657.797c0,12.659-4.755,19.647-12.946,19.647
			c-7.274,0-12.258-6.816-12.372-19.132c0-12.545,5.441-19.361,13.003-19.361C1116.116,638.952,1120.641,645.94,1120.641,657.797z
			 M1100.42,658.371c0,9.681,2.979,15.18,7.562,15.18c5.098,0,7.561-6.015,7.561-15.523c0-9.165-2.291-15.18-7.561-15.18
			C1103.628,642.847,1100.42,648.232,1100.42,658.371z"/>
	</g>
	<g>
		<rect x="1284.137" y="636.151" fill="none" width="243.416" height="129.662"/>
		<path fill="#FFFFFF" stroke="#FFFFFF" stroke-miterlimit="10" d="M1412.92,659.516v3.666h-14.148v-3.666H1412.92z"/>
	</g>
	<g>
		<rect x="568.605" y="867.436" fill="none" width="243.416" height="129.663"/>
		<path fill="#FFFFFF" stroke="#FFFFFF" stroke-miterlimit="10" d="M697.388,890.801v3.666H683.24v-3.666H697.388z"/>
	</g>
	<g>
		<rect x="209.106" y="419.382" fill="none" width="243.417" height="129.663"/>
		<path fill="#FFFFFF" stroke="#FFFFFF" stroke-miterlimit="10" d="M287.297,478.576c-2.663,1.375-8.247,2.749-15.292,2.749
			c-16.322,0-28.521-10.309-28.521-29.38c0-18.212,12.285-30.411,30.239-30.411c7.13,0,11.769,1.546,13.745,2.577l-1.89,6.1
			c-2.749-1.375-6.787-2.406-11.597-2.406c-13.574,0-22.594,8.677-22.594,23.882c0,14.261,8.161,23.281,22.164,23.281
			c4.639,0,9.278-0.945,12.285-2.405L287.297,478.576z"/>
		<path fill="#FFFFFF" stroke="#FFFFFF" stroke-miterlimit="10" d="M296.233,451.773c0-4.897-0.085-9.106-0.343-12.972h6.615
			l0.344,8.247h0.257c1.89-5.584,6.529-9.106,11.598-9.106c0.773,0,1.375,0.086,2.062,0.172v7.13
			c-0.773-0.172-1.546-0.172-2.577-0.172c-5.326,0-9.106,3.952-10.137,9.622c-0.172,1.031-0.258,2.319-0.258,3.522v22.164h-7.56
			V451.773z"/>
		<path fill="#FFFFFF" stroke="#FFFFFF" stroke-miterlimit="10" d="M341.442,476.436v2.905l-14.172,29.647h-4.558l14.123-28.795
			v-0.101H320.91v-3.656H341.442z"/>
		<path fill="#FFFFFF" stroke="#FFFFFF" stroke-miterlimit="10" d="M350.277,480.38v-57.901h8.247l18.47,29.294
			c4.209,6.787,7.646,12.886,10.309,18.813l0.258-0.086c-0.687-7.731-0.859-14.776-0.859-23.796v-24.226h7.044v57.901h-7.56
			L367.802,451c-4.038-6.443-7.903-13.058-10.738-19.329l-0.258,0.086c0.43,7.302,0.516,14.261,0.516,23.882v24.741H350.277z"/>
		<path fill="#FFFFFF" stroke="#FFFFFF" stroke-miterlimit="10" d="M415.826,427.118c0,2.577-1.804,4.639-4.811,4.639
			c-2.749,0-4.553-2.062-4.553-4.639s1.89-4.725,4.725-4.725C413.937,422.393,415.826,424.455,415.826,427.118z M407.407,480.38
			v-41.579h7.56v41.579H407.407z"/>
	</g>
	<g>
		<rect x="209.106" y="636.151" fill="none" width="243.417" height="129.662"/>
		<path fill="#FFFFFF" stroke="#FFFFFF" stroke-miterlimit="10" d="M278.447,695.343c-2.663,1.374-8.247,2.749-15.292,2.749
			c-16.322,0-28.521-10.31-28.521-29.381c0-18.212,12.285-30.411,30.239-30.411c7.13,0,11.769,1.547,13.745,2.577l-1.89,6.1
			c-2.749-1.374-6.787-2.405-11.597-2.405c-13.574,0-22.594,8.677-22.594,23.882c0,14.261,8.161,23.281,22.164,23.281
			c4.639,0,9.278-0.945,12.285-2.405L278.447,695.343z"/>
		<path fill="#FFFFFF" stroke="#FFFFFF" stroke-miterlimit="10" d="M287.384,668.54c0-4.896-0.085-9.105-0.343-12.972h6.615
			l0.344,8.247h0.257c1.89-5.584,6.529-9.106,11.598-9.106c0.773,0,1.375,0.086,2.062,0.172v7.131
			c-0.773-0.172-1.546-0.172-2.577-0.172c-5.326,0-9.106,3.951-10.137,9.621c-0.172,1.031-0.258,2.32-0.258,3.522v22.164h-7.56
			V668.54z"/>
		<path fill="#FFFFFF" stroke="#FFFFFF" stroke-miterlimit="10" d="M332.593,693.204v2.905l-14.172,29.646h-4.558l14.123-28.796
			v-0.1H312.06v-3.656H332.593z"/>
		<path fill="#FFFFFF" stroke="#FFFFFF" stroke-miterlimit="10" d="M337.476,692.766l32.043-46.991v-0.258h-29.294v-6.271h39.088
			v4.553l-31.958,46.819v0.258h32.387v6.271h-42.266V692.766z"/>
		<path fill="#FFFFFF" stroke="#FFFFFF" stroke-miterlimit="10" d="M388.678,666.822c0-4.381-0.086-7.817-0.343-11.254h6.701
			l0.43,6.873h0.171c2.062-3.866,6.873-7.732,13.745-7.732c5.756,0,14.69,3.437,14.69,17.697v24.741h-7.56v-23.968
			c0-6.701-2.491-12.285-9.622-12.285c-4.896,0-8.762,3.522-10.137,7.731c-0.344,0.945-0.516,2.234-0.516,3.522v24.999h-7.56
			V666.822z"/>
	</g>
	<g>
		<rect x="209.106" y="867.436" fill="none" width="243.417" height="129.663"/>
		<path fill="#FFFFFF" stroke="#FFFFFF" stroke-miterlimit="10" d="M267.151,926.628c-2.663,1.374-8.247,2.749-15.292,2.749
			c-16.322,0-28.521-10.31-28.521-29.381c0-18.212,12.285-30.411,30.239-30.411c7.13,0,11.769,1.547,13.745,2.577l-1.89,6.1
			c-2.749-1.374-6.787-2.405-11.597-2.405c-13.574,0-22.594,8.677-22.594,23.882c0,14.261,8.161,23.281,22.164,23.281
			c4.639,0,9.278-0.945,12.285-2.405L267.151,926.628z"/>
		<path fill="#FFFFFF" stroke="#FFFFFF" stroke-miterlimit="10" d="M276.087,899.825c0-4.896-0.086-9.105-0.343-12.972h6.615
			l0.344,8.247h0.257c1.89-5.584,6.529-9.106,11.598-9.106c0.773,0,1.375,0.086,2.062,0.172v7.131
			c-0.773-0.172-1.546-0.172-2.578-0.172c-5.326,0-9.106,3.951-10.137,9.621c-0.172,1.031-0.258,2.32-0.258,3.522v22.164h-7.56
			V899.825z"/>
		<path fill="#FFFFFF" stroke="#FFFFFF" stroke-miterlimit="10" d="M321.296,924.489v2.905l-14.173,29.646h-4.557l14.123-28.796
			v-0.1h-15.925v-3.656H321.296z"/>
		<path fill="#FFFFFF" stroke="#FFFFFF" stroke-miterlimit="10" d="M378.927,903.003c-0.43-8.075-0.945-17.868-0.945-24.999h-0.171
			c-2.062,6.701-4.381,14.003-7.302,21.992l-10.223,28.092h-5.67l-9.45-27.576c-2.749-8.247-4.982-15.635-6.615-22.508h-0.172
			c-0.172,7.217-0.601,16.838-1.117,25.601l-1.546,24.827h-7.13l4.038-57.901h9.536l9.879,28.006
			c2.406,7.13,4.295,13.487,5.842,19.501h0.172c1.546-5.842,3.608-12.199,6.185-19.501l10.309-28.006h9.536l3.608,57.901h-7.388
			L378.927,903.003z"/>
		<path fill="#FFFFFF" stroke="#FFFFFF" stroke-miterlimit="10" d="M399.976,898.107c0-4.381-0.085-7.817-0.343-11.254h6.701
			l0.429,6.873h0.172c2.062-3.866,6.873-7.732,13.745-7.732c5.756,0,14.69,3.437,14.69,17.697v24.741h-7.56v-23.968
			c0-6.701-2.491-12.285-9.622-12.285c-4.896,0-8.762,3.522-10.137,7.731c-0.344,0.945-0.516,2.234-0.516,3.522v24.999h-7.56
			V898.107z"/>
	</g>
	<g>
		<rect x="952.423" y="867.436" fill="none" width="243.416" height="129.663"/>
		<path fill="#FFFFFF" stroke="#FFFFFF" stroke-miterlimit="10" d="M1037.823,869.493h5.041v25.834
			c0,10.253-5.041,13.403-11.686,13.403c-1.891,0-4.125-0.4-5.327-0.916l0.687-4.067c1.031,0.401,2.521,0.745,4.239,0.745
			c4.468,0,7.046-2.005,7.046-9.566V869.493z"/>
		<path fill="#FFFFFF" stroke="#FFFFFF" stroke-miterlimit="10" d="M1057.753,868.461c-1.317,4.812-3.78,10.998-5.327,13.633
			l-3.208,0.344c1.203-3.38,2.75-9.279,3.38-13.404L1057.753,868.461z"/>
		<path fill="#FFFFFF" stroke="#FFFFFF" stroke-miterlimit="10" d="M1061.417,888.796v-3.438h29.558v3.438H1061.417z
			 M1061.417,900.023v-3.437h29.558v3.437H1061.417z"/>
		<path fill="#FFFFFF" stroke="#FFFFFF" stroke-miterlimit="10" d="M1120.641,889.083c0,12.659-4.755,19.647-12.946,19.647
			c-7.274,0-12.258-6.816-12.372-19.132c0-12.545,5.441-19.361,13.003-19.361C1116.116,870.237,1120.641,877.225,1120.641,889.083z
			 M1100.42,889.656c0,9.681,2.979,15.18,7.562,15.18c5.098,0,7.561-6.015,7.561-15.523c0-9.165-2.291-15.18-7.561-15.18
			C1103.628,874.132,1100.42,879.517,1100.42,889.656z"/>
	</g>
	<g>
		<rect x="1284.137" y="867.436" fill="none" width="243.416" height="129.663"/>
		<path fill="#FFFFFF" stroke="#FFFFFF" stroke-miterlimit="10" d="M1412.92,890.801v3.666h-14.148v-3.666H1412.92z"/>
	</g>
	<line fill="#FFFFFF" stroke="#FFFFFF" stroke-miterlimit="10" x1="202.686" y1="359.821" x2="1560.963" y2="359.821"/>
	<line fill="#FFFFFF" stroke="#FFFFFF" stroke-miterlimit="10" x1="512.183" y1="167.717" x2="512.183" y2="983.877"/>
	<g>
		<path fill="#FFFFFF" stroke="#FFFFFF" stroke-miterlimit="10" d="M104.589,711.756c1.718,4.467,4.238,13.402,4.238,23.826
			c0,11.684-2.978,21.306-10.195,28.865c-6.415,6.645-16.724,10.768-28.751,10.768c-23.024,0-39.862-15.922-39.862-41.81
			c0-8.935,1.947-16.037,3.551-19.358l8.133,2.52c-1.947,4.124-3.322,9.278-3.322,17.068c0,18.785,11.684,31.042,31.042,31.042
			c19.587,0,31.157-11.684,31.157-29.782c0-6.529-0.916-10.997-2.062-13.288H75.494v15.579h-8.018v-25.43H104.589z"/>
		<path fill="#FFFFFF" stroke="#FFFFFF" stroke-miterlimit="10" d="M54.703,699.248c-0.642-3.528-1.123-8.66-1.123-13.392
			c0-7.457,1.443-12.348,4.411-15.636c2.405-2.646,6.094-4.25,10.344-4.25c7.056,0,11.787,4.49,13.711,10.104h0.241
			c1.443-4.09,5.292-6.575,10.905-7.858c7.537-1.764,12.749-3.047,14.834-4.169v7.217c-1.604,0.882-6.174,2.084-12.91,3.527
			c-7.458,1.604-10.264,4.571-10.504,10.905v6.575h23.414v6.977H54.703z M79.32,692.271v-7.137c0-7.457-4.089-12.188-10.264-12.188
			c-6.976,0-10.023,5.052-10.023,12.429c0,3.367,0.241,5.693,0.562,6.896H79.32z"/>
		<path fill="#FFFFFF" stroke="#FFFFFF" stroke-miterlimit="10" d="M82.688,628.205v20.928h19.485v-23.414h5.854v30.471H53.981
			v-29.268h5.854v22.211h17.079v-20.928H82.688z"/>
		<path fill="#FFFFFF" stroke="#FFFFFF" stroke-miterlimit="10" d="M82.688,588.755v20.928h19.485v-23.414h5.854v30.471H53.981
			v-29.268h5.854v22.211h17.079v-20.928H82.688z"/>
		<path fill="#FFFFFF" stroke="#FFFFFF" stroke-miterlimit="10" d="M108.026,577.209H53.981v-7.698l27.343-17.239
			c6.334-3.93,12.028-7.137,17.561-9.622l-0.08-0.241c-7.217,0.642-13.792,0.802-22.211,0.802H53.981v-6.575h54.044v7.057
			l-27.423,17.159c-6.014,3.77-12.188,7.377-18.042,10.023l0.08,0.24c6.816-0.4,13.311-0.48,22.292-0.48h23.093V577.209z"/>
	</g>
	<g>
		<path fill="#FFFFFF" stroke="#FFFFFF" stroke-miterlimit="10" d="M920.225,46.479c4.811-0.802,11.11-1.489,19.129-1.489
			c9.852,0,17.067,2.291,21.649,6.415c4.124,3.666,6.759,9.278,6.759,16.151c0,6.987-2.063,12.486-5.957,16.495
			c-5.384,5.613-13.86,8.477-23.597,8.477c-2.979,0-5.728-0.114-8.019-0.687v30.928h-9.965V46.479z M930.19,83.708
			c2.177,0.572,4.926,0.802,8.248,0.802c12.027,0,19.358-5.957,19.358-16.38c0-10.31-7.331-15.235-18.213-15.235
			c-4.354,0-7.675,0.344-9.394,0.802V83.708z"/>
		<path fill="#FFFFFF" stroke="#FFFFFF" stroke-miterlimit="10" d="M985.529,68.724v32.074c0,12.028,5.372,17.16,12.589,17.16
			c7.938,0,13.15-5.292,13.15-17.16V68.724h7.057v31.593c0,16.598-8.74,23.333-20.447,23.333c-11.065,0-19.405-6.254-19.405-23.093
			V68.724H985.529z"/>
		<path fill="#FFFFFF" stroke="#FFFFFF" stroke-miterlimit="10" d="M1030.43,69.445c3.528-0.642,8.66-1.123,13.392-1.123
			c7.457,0,12.348,1.443,15.636,4.411c2.646,2.405,4.25,6.094,4.25,10.344c0,7.056-4.49,11.787-10.104,13.711v0.241
			c4.09,1.443,6.575,5.292,7.858,10.905c1.764,7.537,3.047,12.749,4.169,14.834h-7.217c-0.882-1.604-2.084-6.174-3.527-12.91
			c-1.604-7.458-4.571-10.264-10.905-10.504h-6.575v23.414h-6.977V69.445z M1037.407,94.062h7.137
			c7.457,0,12.188-4.089,12.188-10.264c0-6.976-5.052-10.023-12.429-10.023c-3.367,0-5.693,0.241-6.896,0.562V94.062z"/>
		<path fill="#FFFFFF" stroke="#FFFFFF" stroke-miterlimit="10" d="M1073.569,69.365c3.368-0.561,7.778-1.042,13.392-1.042
			c6.896,0,11.947,1.604,15.154,4.491c2.887,2.566,4.731,6.495,4.731,11.306c0,4.891-1.443,8.74-4.17,11.546
			c-3.769,3.929-9.702,5.934-16.519,5.934c-2.084,0-4.009-0.08-5.612-0.481v21.65h-6.977V69.365z M1080.545,95.425
			c1.523,0.401,3.448,0.562,5.773,0.562c8.419,0,13.551-4.169,13.551-11.466c0-7.217-5.132-10.665-12.749-10.665
			c-3.047,0-5.373,0.24-6.575,0.561V95.425z"/>
		<path fill="#FFFFFF" stroke="#FFFFFF" stroke-miterlimit="10" d="M1116.147,68.724h7.057v48.191h23.093v5.854h-30.149V68.724z"/>
		<path fill="#FFFFFF" stroke="#FFFFFF" stroke-miterlimit="10" d="M1181.977,97.43h-20.928v19.485h23.414v5.854h-30.471V68.724
			h29.268v5.854h-22.211v17.079h20.928V97.43z"/>
	</g>
</g>
</svg>
