<?xml version="1.0" encoding="utf-8"?>
<!-- Generator: Adobe Illustrator 15.1.0, SVG Export Plug-In . SVG Version: 6.00 Build 0)  -->
<!DOCTYPE svg PUBLIC "-//W3C//DTD SVG 1.1//EN" "http://www.w3.org/Graphics/SVG/1.1/DTD/svg11.dtd">
<svg version="1.1" id="Layer_1" xmlns="http://www.w3.org/2000/svg" xmlns:xlink="http://www.w3.org/1999/xlink" x="0px" y="0px"
	 width="276.796px" height="66.465px" viewBox="0 0 276.796 66.465" enable-background="new 0 0 276.796 66.465"
	 xml:space="preserve">
<path fill="#FFE777" d="M140.121,0h136.676v16.616H140.121V0z M74.335,0h65.786v16.616H74.335V0z M0,0h74.335v16.616H0V0z"/>
<path fill="#FFFBDC" d="M140.121,49.849h136.676v16.616H140.121V49.849z M74.335,49.849h65.786v16.616H74.335V49.849z M0,49.849
	h74.335v16.616H0V49.849z M140.121,16.616h136.676v16.616H140.121V16.616z M74.335,16.616h65.786v16.616H74.335V16.616z M0,16.616
	h74.335v16.616H0V16.616z"/>
<path fill="#FFF9C7" d="M140.121,33.232h136.676v16.616H140.121V33.232z M74.335,33.232h65.786v16.616H74.335V33.232z M0,33.232
	h74.335v16.616H0V33.232z"/>
<g>
	<path d="M10.957,6.596c-0.324-1.512-1.583-1.787-2.411-1.787c-1.559,0-2.818,1.151-2.818,3.418c0,2.027,0.72,3.586,2.854,3.586
		c0.755,0,2.063-0.359,2.458-2.362h1.127c-0.479,3.25-3.118,3.394-3.766,3.394c-1.955,0-3.874-1.271-3.874-4.581
		c0-2.65,1.511-4.485,4.018-4.485c2.219,0,3.37,1.379,3.538,2.818H10.957z"/>
	<path d="M15.831,6.164c2.003,0,2.915,1.69,2.915,3.31s-0.912,3.311-2.915,3.311s-2.914-1.691-2.914-3.311
		S13.828,6.164,15.831,6.164z M15.831,11.873c1.511,0,1.823-1.56,1.823-2.399c0-0.839-0.312-2.398-1.823-2.398
		c-1.511,0-1.823,1.56-1.823,2.398C14.008,10.313,14.32,11.873,15.831,11.873z"/>
	<path d="M19.948,6.344h0.995v0.888h0.024c0.228-0.336,0.768-1.067,1.895-1.067s1.487,0.684,1.667,1.02
		c0.528-0.588,0.948-1.02,1.919-1.02c0.672,0,1.943,0.348,1.943,2.11v4.342h-1.056V8.563c0-0.863-0.264-1.451-1.164-1.451
		c-0.887,0-1.475,0.84-1.475,1.679v3.826h-1.055V8.274c0-0.527-0.204-1.163-0.983-1.163c-0.6,0-1.655,0.384-1.655,2.087v3.418
		h-1.055V6.344z"/>
	<path d="M29.86,6.344h0.995v0.888h0.024c0.252-0.36,0.732-1.067,1.871-1.067c1.667,0,2.615,1.367,2.615,3.13
		c0,1.499-0.624,3.502-2.759,3.502c-0.839,0-1.391-0.396-1.667-0.839h-0.024v3.142H29.86V6.344z M32.583,11.885
		c1.151,0,1.691-1.044,1.691-2.423c0-0.804-0.084-2.351-1.715-2.351c-1.523,0-1.691,1.643-1.691,2.662
		C30.868,11.44,31.911,11.885,32.583,11.885z"/>
	<path d="M39.17,6.164c2.003,0,2.915,1.69,2.915,3.31s-0.912,3.311-2.915,3.311s-2.914-1.691-2.914-3.311S37.167,6.164,39.17,6.164z
		 M39.17,11.873c1.511,0,1.823-1.56,1.823-2.399c0-0.839-0.312-2.398-1.823-2.398c-1.511,0-1.823,1.56-1.823,2.398
		C37.348,10.313,37.66,11.873,39.17,11.873z"/>
	<path d="M47.377,12.616v-0.911l-0.024-0.024c-0.444,0.731-0.983,1.115-1.991,1.115c-0.923,0-2.039-0.443-2.039-1.942v-4.51h1.056
		v4.162c0,1.031,0.527,1.379,1.211,1.379c1.331,0,1.727-1.176,1.727-2.087V6.344h1.055v6.272H47.377z"/>
	<path d="M55.069,12.616h-1.055V8.754c0-1.091-0.312-1.643-1.343-1.643c-0.6,0-1.655,0.384-1.655,2.087v3.418H49.96V6.344h0.995
		v0.888h0.024c0.228-0.336,0.816-1.067,1.895-1.067c0.972,0,2.195,0.396,2.195,2.183V12.616z"/>
	<path d="M61.837,12.616h-0.996v-0.863h-0.024c-0.456,0.852-1.175,1.043-1.787,1.043c-2.135,0-2.758-2.003-2.758-3.502
		c0-1.763,0.947-3.13,2.614-3.13c1.14,0,1.619,0.707,1.871,1.067l0.024-0.084V4.005h1.056V12.616z M59.054,11.885
		c0.672,0,1.715-0.444,1.715-2.111c0-1.02-0.168-2.662-1.691-2.662c-1.631,0-1.715,1.547-1.715,2.351
		C57.363,10.841,57.903,11.885,59.054,11.885z"/>
</g>
<g>
	<path d="M84.445,6.523c-0.06-1.331-1.163-1.751-2.135-1.751c-0.731,0-1.967,0.204-1.967,1.511c0,0.732,0.516,0.972,1.02,1.092
		l2.458,0.563c1.115,0.265,1.955,0.936,1.955,2.303c0,2.039-1.895,2.603-3.37,2.603c-1.595,0-2.219-0.479-2.603-0.827
		c-0.732-0.66-0.875-1.379-0.875-2.183h1.091c0,1.559,1.271,2.015,2.375,2.015c0.84,0,2.255-0.216,2.255-1.451
		c0-0.899-0.42-1.188-1.835-1.523l-1.763-0.407c-0.563-0.132-1.835-0.528-1.835-2.027c0-1.343,0.875-2.662,2.962-2.662
		c3.01,0,3.31,1.799,3.358,2.746H84.445z"/>
	<path d="M87.04,6.344h0.995v0.888h0.024c0.252-0.36,0.732-1.067,1.871-1.067c1.667,0,2.615,1.367,2.615,3.13
		c0,1.499-0.624,3.502-2.759,3.502c-0.839,0-1.391-0.396-1.667-0.839h-0.024v3.142H87.04V6.344z M89.762,11.885
		c1.151,0,1.691-1.044,1.691-2.423c0-0.804-0.084-2.351-1.715-2.351c-1.523,0-1.691,1.643-1.691,2.662
		C88.047,11.44,89.091,11.885,89.762,11.885z"/>
	<path d="M93.82,5.204V4.005h1.055v1.199H93.82z M94.875,12.616H93.82V6.344h1.055V12.616z"/>
	<path d="M101.569,12.616h-1.055V8.754c0-1.091-0.312-1.643-1.343-1.643c-0.6,0-1.655,0.384-1.655,2.087v3.418H96.46V6.344h0.995
		v0.888h0.024c0.228-0.336,0.816-1.067,1.895-1.067c0.972,0,2.195,0.396,2.195,2.183V12.616z"/>
	<path d="M109.022,6.164c2.003,0,2.915,1.69,2.915,3.31s-0.912,3.311-2.915,3.311s-2.914-1.691-2.914-3.311
		S107.019,6.164,109.022,6.164z M109.022,11.873c1.511,0,1.823-1.56,1.823-2.399c0-0.839-0.312-2.398-1.823-2.398
		c-1.511,0-1.823,1.56-1.823,2.398C107.199,10.313,107.511,11.873,109.022,11.873z"/>
	<path d="M114.447,7.219v5.397h-1.056V7.219h-0.863V6.344h0.863V5.265c0-0.948,0.6-1.38,1.631-1.38c0.156,0,0.312,0.013,0.479,0.024
		v0.947c-0.132-0.012-0.3-0.024-0.432-0.024c-0.456,0-0.624,0.229-0.624,0.732v0.779h1.055v0.875H114.447z"/>
	<path d="M127.031,12.616V7.531c0-0.252,0.024-1.344,0.024-2.147h-0.024l-2.422,7.232h-1.151l-2.423-7.22h-0.024
		c0,0.791,0.024,1.883,0.024,2.135v5.085h-1.127V4.005h1.667l2.459,7.28h0.024l2.446-7.28h1.655v8.611H127.031z"/>
</g>
<g>
	<path d="M130.337,8.62h-0.678V3.603h0.678V8.62z"/>
	<path d="M132.282,8.62h-0.678V3.603h0.678V8.62z"/>
</g>
<g>
	<path d="M144.289,4.005h6.992v1.031h-2.914v7.58h-1.164v-7.58h-2.914V4.005z"/>
	<path d="M153.348,6.164c2.002,0,2.914,1.69,2.914,3.31s-0.912,3.311-2.914,3.311c-2.004,0-2.914-1.691-2.914-3.311
		S151.344,6.164,153.348,6.164z M153.348,11.873c1.511,0,1.822-1.56,1.822-2.399c0-0.839-0.312-2.398-1.822-2.398
		c-1.512,0-1.823,1.56-1.823,2.398C151.524,10.313,151.836,11.873,153.348,11.873z"/>
	<path d="M158.76,7.219v4.078c0,0.492,0.42,0.492,0.636,0.492h0.372v0.827c-0.384,0.036-0.684,0.084-0.792,0.084
		c-1.044,0-1.271-0.588-1.271-1.344V7.219h-0.852V6.344h0.852V4.593h1.055v1.751h1.008v0.875H158.76z"/>
	<path d="M160.656,8.251c0.049-1.5,1.044-2.087,2.591-2.087c0.504,0,2.327,0.144,2.327,1.751v3.609c0,0.265,0.132,0.372,0.348,0.372
		c0.096,0,0.229-0.023,0.348-0.048v0.768c-0.18,0.048-0.336,0.12-0.576,0.12c-0.936,0-1.078-0.479-1.115-0.96
		c-0.407,0.444-1.043,1.02-2.266,1.02c-1.152,0-1.968-0.731-1.968-1.811c0-0.528,0.156-1.751,1.907-1.967l1.738-0.216
		c0.252-0.024,0.553-0.12,0.553-0.744c0-0.659-0.48-1.02-1.476-1.02c-1.199,0-1.367,0.731-1.439,1.212H160.656z M164.519,9.414
		c-0.168,0.132-0.432,0.228-1.739,0.396c-0.516,0.072-1.344,0.229-1.344,1.02c0,0.684,0.349,1.092,1.141,1.092
		c0.982,0,1.942-0.636,1.942-1.476V9.414z"/>
	<path d="M168.443,12.616h-1.055V4.005h1.055V12.616z"/>
	<path d="M177.25,8.011h3.777v4.605h-0.755l-0.276-1.115c-0.588,0.815-1.667,1.343-2.842,1.343c-1.476,0-2.195-0.539-2.639-0.971
		c-1.319-1.248-1.355-2.723-1.355-3.635c0-2.099,1.271-4.461,4.078-4.461c1.607,0,3.394,0.911,3.646,2.842h-1.128
		c-0.371-1.499-1.631-1.811-2.578-1.811c-1.547,0-2.818,1.235-2.818,3.49c0,1.751,0.576,3.55,2.867,3.55
		c0.432,0,1.127-0.048,1.762-0.552c0.756-0.6,0.948-1.367,0.948-2.291h-2.687V8.011z"/>
	<path d="M188.025,6.523c-0.061-1.331-1.164-1.751-2.135-1.751c-0.732,0-1.967,0.204-1.967,1.511c0,0.732,0.516,0.972,1.02,1.092
		l2.458,0.563c1.115,0.265,1.955,0.936,1.955,2.303c0,2.039-1.896,2.603-3.37,2.603c-1.596,0-2.219-0.479-2.603-0.827
		c-0.731-0.66-0.876-1.379-0.876-2.183h1.092c0,1.559,1.271,2.015,2.375,2.015c0.84,0,2.254-0.216,2.254-1.451
		c0-0.899-0.42-1.188-1.834-1.523l-1.764-0.407c-0.563-0.132-1.835-0.528-1.835-2.027c0-1.343,0.876-2.662,2.962-2.662
		c3.011,0,3.311,1.799,3.359,2.746H188.025z"/>
	<path d="M197.602,8.131c-0.012-0.396-0.156-1.056-1.486-1.056c-0.324,0-1.248,0.108-1.248,0.888c0,0.516,0.324,0.636,1.14,0.84
		l1.056,0.264c1.307,0.323,1.763,0.804,1.763,1.655c0,1.295-1.067,2.074-2.482,2.074c-2.483,0-2.663-1.439-2.698-2.194h1.02
		c0.035,0.491,0.18,1.283,1.666,1.283c0.756,0,1.439-0.3,1.439-0.996c0-0.503-0.348-0.671-1.247-0.899l-1.224-0.3
		c-0.875-0.216-1.451-0.659-1.451-1.522c0-1.38,1.14-2.003,2.375-2.003c2.242,0,2.398,1.654,2.398,1.967H197.602z"/>
	<path d="M199.956,6.344h0.995v0.888h0.023c0.252-0.36,0.732-1.067,1.871-1.067c1.668,0,2.615,1.367,2.615,3.13
		c0,1.499-0.623,3.502-2.759,3.502c-0.839,0-1.392-0.396-1.667-0.839h-0.023v3.142h-1.056V6.344z M202.678,11.885
		c1.152,0,1.691-1.044,1.691-2.423c0-0.804-0.084-2.351-1.715-2.351c-1.523,0-1.691,1.643-1.691,2.662
		C200.963,11.44,202.007,11.885,202.678,11.885z"/>
	<path d="M206.736,5.204V4.005h1.055v1.199H206.736z M207.791,12.616h-1.055V6.344h1.055V12.616z"/>
	<path d="M214.484,12.616h-1.055V8.754c0-1.091-0.313-1.643-1.344-1.643c-0.6,0-1.654,0.384-1.654,2.087v3.418h-1.056V6.344h0.995
		v0.888h0.023c0.229-0.336,0.816-1.067,1.896-1.067c0.972,0,2.194,0.396,2.194,2.183V12.616z"/>
	<path d="M221.938,6.164c2.004,0,2.915,1.69,2.915,3.31s-0.911,3.311-2.915,3.311c-2.002,0-2.914-1.691-2.914-3.311
		S219.936,6.164,221.938,6.164z M221.938,11.873c1.512,0,1.824-1.56,1.824-2.399c0-0.839-0.313-2.398-1.824-2.398
		c-1.51,0-1.822,1.56-1.822,2.398C220.115,10.313,220.428,11.873,221.938,11.873z"/>
	<path d="M227.363,7.219v5.397h-1.057V7.219h-0.863V6.344h0.863V5.265c0-0.948,0.6-1.38,1.632-1.38c0.155,0,0.312,0.013,0.479,0.024
		v0.947c-0.132-0.012-0.3-0.024-0.432-0.024c-0.455,0-0.623,0.229-0.623,0.732v0.779h1.055v0.875H227.363z"/>
	<path d="M235.018,12.616h-1.091l-1.812-6.272h1.152l1.199,4.93h0.023l1.211-4.93h1.176l1.224,4.93h0.024l1.271-4.93h1.056
		l-1.823,6.272h-1.091l-1.271-4.857h-0.024L235.018,12.616z"/>
	<path d="M246.5,12.616h-1.055V8.515c0-0.852-0.24-1.403-1.248-1.403c-0.863,0-1.75,0.504-1.75,2.087v3.418h-1.056V4.005h1.056
		v3.179h0.023c0.3-0.396,0.828-1.02,1.835-1.02c0.972,0,2.194,0.396,2.194,2.183V12.616z"/>
	<path d="M253.389,10.649c-0.036,0.3-0.324,1.188-1.115,1.715c-0.289,0.192-0.696,0.432-1.703,0.432
		c-1.764,0-2.807-1.331-2.807-3.142c0-1.943,0.936-3.49,3.01-3.49c1.812,0,2.699,1.438,2.699,3.657h-4.582
		c0,1.308,0.611,2.063,1.823,2.063c0.995,0,1.583-0.768,1.619-1.235H253.389z M252.381,8.982c-0.061-0.972-0.468-1.871-1.751-1.871
		c-0.972,0-1.739,0.899-1.739,1.871H252.381z"/>
	<path d="M260.061,10.649c-0.036,0.3-0.324,1.188-1.115,1.715c-0.289,0.192-0.696,0.432-1.703,0.432
		c-1.764,0-2.807-1.331-2.807-3.142c0-1.943,0.936-3.49,3.01-3.49c1.812,0,2.699,1.438,2.699,3.657h-4.582
		c0,1.308,0.611,2.063,1.823,2.063c0.995,0,1.583-0.768,1.619-1.235H260.061z M259.053,8.982c-0.061-0.972-0.468-1.871-1.751-1.871
		c-0.972,0-1.739,0.899-1.739,1.871H259.053z"/>
	<path d="M262.486,12.616h-1.055V4.005h1.055V12.616z"/>
</g>
<g>
	<path d="M10.953,23.216c-0.324-1.512-1.583-1.787-2.411-1.787c-1.559,0-2.818,1.151-2.818,3.418c0,2.027,0.72,3.586,2.854,3.586
		c0.755,0,2.063-0.359,2.458-2.362h1.127c-0.479,3.25-3.118,3.394-3.766,3.394c-1.955,0-3.874-1.271-3.874-4.581
		c0-2.65,1.511-4.485,4.018-4.485c2.219,0,3.37,1.379,3.538,2.818H10.953z"/>
	<path d="M14.64,29.236h-1.056v-6.272h0.996v1.043h0.024c0.42-0.731,0.972-1.223,1.763-1.223c0.132,0,0.192,0.012,0.276,0.036v1.091
		h-0.396c-0.983,0-1.607,0.768-1.607,1.679V29.236z"/>
</g>
<g>
	<path d="M16.919,28.42h3.396v0.539c-0.489,0.51-1.663,2.075-2.02,4.27h-0.678c0.167-1.349,1.062-3.11,2.006-4.207h-2.705V28.42z"/>
</g>
<g>
	<path d="M27.17,20.621h1.127v8.611H26.99l-4.377-6.956h-0.024v6.956h-1.127v-8.611h1.379l4.306,6.956h0.024V20.621z"/>
	<path d="M30.017,21.82v-1.199h1.055v1.199H30.017z M31.072,29.232h-1.055V22.96h1.055V29.232z"/>
</g>
<g>
	<path d="M82.636,29.232h-1.127v-5.984h-1.967v-0.84c1.367-0.096,1.931-0.228,2.267-1.607h0.828V29.232z"/>
</g>
<g>
	<path d="M148.42,29.232h-1.128v-5.984h-1.967v-0.84c1.367-0.096,1.931-0.228,2.267-1.607h0.828V29.232z"/>
	<path d="M151.385,29.46h-0.803l2.95-9.066h0.792L151.385,29.46z"/>
	<path d="M154.649,23.823c0-2.746,2.003-3.022,2.914-3.022c1.464,0,2.639,0.947,2.639,2.519c0,1.512-0.995,2.147-2.255,2.818
		l-0.875,0.48c-1.152,0.636-1.403,1.295-1.451,1.619h4.581v0.995h-5.769c0.06-1.751,0.852-2.687,1.979-3.346l1.115-0.648
		c0.9-0.516,1.547-0.863,1.547-1.967c0-0.672-0.432-1.523-1.666-1.523c-1.596,0-1.668,1.487-1.703,2.075H154.649z"/>
</g>
<g>
	<path d="M10.946,39.832c-0.324-1.512-1.583-1.787-2.411-1.787c-1.559,0-2.818,1.151-2.818,3.418c0,2.027,0.72,3.586,2.854,3.586
		c0.755,0,2.063-0.359,2.458-2.362h1.127c-0.479,3.25-3.118,3.394-3.766,3.394c-1.955,0-3.874-1.271-3.874-4.581
		c0-2.65,1.511-4.485,4.018-4.485c2.219,0,3.37,1.379,3.538,2.818H10.946z"/>
	<path d="M14.633,45.853h-1.056V39.58h0.996v1.043h0.024c0.42-0.731,0.972-1.223,1.763-1.223c0.132,0,0.192,0.012,0.276,0.036v1.091
		H16.24c-0.983,0-1.607,0.768-1.607,1.68V45.853z"/>
</g>
<g>
	<path d="M16.919,45.035h3.396v0.539c-0.489,0.51-1.663,2.075-2.02,4.27h-0.678c0.167-1.349,1.062-3.11,2.006-4.207h-2.705V45.035z"
		/>
</g>
<g>
	<path d="M27.602,45.848h-6.776v-0.972l5.277-6.608h-4.881v-1.031h6.381v1.008l-5.301,6.572h5.301V45.848z"/>
	<path d="M33.771,45.848h-1.055v-3.862c0-1.091-0.312-1.643-1.343-1.643c-0.6,0-1.655,0.384-1.655,2.087v3.418h-1.055v-6.272h0.995
		v0.888h0.024c0.228-0.336,0.816-1.067,1.895-1.067c0.972,0,2.195,0.396,2.195,2.183V45.848z"/>
</g>
<g>
	<path d="M81.664,46.075c-2.422,0-2.89-2.578-2.89-4.329s0.468-4.33,2.89-4.33c2.423,0,2.891,2.579,2.891,4.33
		S84.087,46.075,81.664,46.075z M81.664,38.363c-1.211,0-1.763,1.271-1.763,3.383c0,2.11,0.552,3.382,1.763,3.382
		c1.211,0,1.763-1.271,1.763-3.382C83.427,39.635,82.875,38.363,81.664,38.363z"/>
</g>
<g>
	<path d="M146.801,41.051c0.18,0.012,0.371,0.023,0.551,0.023c0.816,0,1.607-0.324,1.607-1.379c0-0.504-0.3-1.332-1.559-1.332
		c-1.5,0-1.596,1.224-1.644,1.812h-1.031c0-1.235,0.503-2.759,2.722-2.759c1.632,0,2.604,0.936,2.604,2.219
		c0,1.08-0.624,1.596-1.08,1.739v0.024c0.816,0.264,1.404,0.839,1.404,1.967c0,1.379-0.889,2.71-3.035,2.71
		c-0.623,0-1.151-0.155-1.559-0.371c-0.936-0.492-1.188-1.464-1.26-2.435h1.092c0.035,0.791,0.228,1.858,1.799,1.858
		c1.079,0,1.835-0.659,1.835-1.631c0-1.415-1.247-1.547-1.968-1.547c-0.155,0-0.323,0.012-0.479,0.012V41.051z"/>
	<path d="M151.385,46.075h-0.803l2.95-9.066h0.792L151.385,46.075z"/>
	<path d="M154.649,40.438c0-2.746,2.003-3.022,2.914-3.022c1.464,0,2.639,0.947,2.639,2.519c0,1.512-0.995,2.147-2.255,2.818
		l-0.875,0.48c-1.152,0.636-1.403,1.295-1.451,1.619h4.581v0.995h-5.769c0.06-1.751,0.852-2.687,1.979-3.346l1.115-0.648
		c0.9-0.516,1.547-0.863,1.547-1.967c0-0.672-0.432-1.523-1.666-1.523c-1.596,0-1.668,1.487-1.703,2.075H154.649z"/>
</g>
<g>
	<path d="M10.946,56.447c-0.324-1.512-1.583-1.787-2.411-1.787c-1.559,0-2.818,1.151-2.818,3.418c0,2.027,0.72,3.586,2.854,3.586
		c0.755,0,2.063-0.359,2.458-2.362h1.127c-0.479,3.25-3.118,3.394-3.766,3.394c-1.955,0-3.874-1.271-3.874-4.581
		c0-2.65,1.511-4.485,4.018-4.485c2.219,0,3.37,1.379,3.538,2.818H10.946z"/>
	<path d="M14.633,62.468h-1.056v-6.272h0.996v1.043h0.024c0.42-0.731,0.972-1.223,1.763-1.223c0.132,0,0.192,0.012,0.276,0.036
		v1.091H16.24c-0.983,0-1.607,0.768-1.607,1.68V62.468z"/>
</g>
<g>
	<path d="M16.919,61.652h3.396v0.538c-0.489,0.51-1.663,2.075-2.02,4.27h-0.678c0.167-1.349,1.062-3.11,2.006-4.207h-2.705V61.652z"
		/>
</g>
<g>
	<path d="M28.549,62.464v-5.085c0-0.252,0.024-1.344,0.024-2.147h-0.024l-2.422,7.232h-1.151l-2.423-7.22h-0.024
		c0,0.791,0.024,1.883,0.024,2.135v5.085h-1.127v-8.611h1.667l2.459,7.28h0.024l2.446-7.28h1.655v8.611H28.549z"/>
	<path d="M36.435,62.464h-1.055v-3.862c0-1.091-0.312-1.643-1.343-1.643c-0.6,0-1.655,0.384-1.655,2.087v3.418h-1.055v-6.272h0.995
		v0.888h0.024c0.228-0.336,0.816-1.067,1.895-1.067c0.972,0,2.195,0.396,2.195,2.183V62.464z"/>
</g>
<g>
	<path d="M80.093,57.559c0.36-0.275,0.875-0.527,1.631-0.527c1.367,0,2.771,0.959,2.771,2.698c0,0.936-0.42,2.962-3.058,2.962
		c-1.104,0-2.519-0.443-2.723-2.326h1.091c0.108,0.983,0.84,1.415,1.787,1.415c1.091,0,1.775-0.876,1.775-1.931
		c0-1.212-0.828-1.871-1.871-1.871c-0.612,0-1.164,0.288-1.56,0.804l-0.911-0.048l0.635-4.521h4.366v1.031h-3.574L80.093,57.559z"/>
	<path d="M85.602,62.691h-0.804l2.951-9.066h0.792L85.602,62.691z"/>
	<path d="M88.866,57.055c0-2.746,2.003-3.022,2.914-3.022c1.463,0,2.639,0.948,2.639,2.519c0,1.512-0.995,2.147-2.255,2.818
		l-0.875,0.48c-1.151,0.636-1.403,1.295-1.451,1.619h4.582v0.995H88.65c0.06-1.751,0.852-2.687,1.979-3.346l1.116-0.648
		c0.899-0.516,1.547-0.863,1.547-1.967c0-0.672-0.432-1.522-1.667-1.522c-1.595,0-1.667,1.486-1.703,2.074H88.866z"/>
</g>
<g>
	<path d="M148.42,62.464h-1.128v-5.984h-1.967v-0.84c1.367-0.096,1.931-0.228,2.267-1.607h0.828V62.464z"/>
</g>
</svg>