<?xml version="1.0" encoding="utf-8"?>
<!-- Generator: Adobe Illustrator 15.1.0, SVG Export Plug-In . SVG Version: 6.00 Build 0)  -->
<!DOCTYPE svg PUBLIC "-//W3C//DTD SVG 1.1//EN" "http://www.w3.org/Graphics/SVG/1.1/DTD/svg11.dtd">
<svg version="1.1" id="Layer_1" xmlns="http://www.w3.org/2000/svg" xmlns:xlink="http://www.w3.org/1999/xlink" x="0px" y="0px"
	 width="547.062px" height="177.551px" viewBox="0 0 547.062 177.551" enable-background="new 0 0 547.062 177.551"
	 xml:space="preserve">
<g>
	<path fill="#EDEDED" d="M46.526,20.964c-0.504-1.968-1.776-3.408-4.272-3.408c-3.672,0-5.208,3.24-5.208,6.528
		c0,3.289,1.536,6.529,5.208,6.529c2.665,0,4.128-1.992,4.369-4.489h2.928c-0.24,4.104-3.145,6.937-7.297,6.937
		c-5.136,0-8.208-4.081-8.208-8.977s3.072-8.977,8.208-8.977c3.865,0.024,6.913,2.16,7.273,5.856H46.526z"/>
	<path fill="#EDEDED" d="M51.325,26.437c0-3.792,2.28-6.529,6.264-6.529s6.265,2.736,6.265,6.529c0,3.816-2.28,6.552-6.265,6.552
		S51.325,30.252,51.325,26.437z M61.117,26.437c0-2.136-1.08-4.369-3.528-4.369s-3.528,2.232-3.528,4.369
		c0,2.16,1.08,4.392,3.528,4.392S61.117,28.597,61.117,26.437z"/>
	<path fill="#EDEDED" d="M66.132,20.244h2.592v1.728h0.072c0.816-1.224,1.848-2.064,3.816-2.064c1.512,0,2.928,0.648,3.48,2.064
		c0.912-1.272,2.088-2.064,3.889-2.064c2.616,0,4.152,1.152,4.152,4.176v8.569h-2.736v-7.249c0-1.968-0.12-3.336-2.256-3.336
		c-1.848,0-2.64,1.224-2.64,3.313v7.272h-2.736v-7.969c0-1.704-0.528-2.616-2.184-2.616c-1.416,0-2.712,1.152-2.712,3.216v7.369
		h-2.736V20.244z"/>
	<path fill="#EDEDED" d="M87.084,20.244h2.592v1.68h0.048c0.768-1.416,2.256-2.016,3.84-2.016c3.913,0,5.809,2.976,5.809,6.601
		c0,3.336-1.68,6.48-5.353,6.48c-1.584,0-3.288-0.576-4.152-1.944h-0.048v6.192h-2.736V20.244z M93.205,22.068
		c-2.304,0-3.48,1.752-3.48,4.393c0,2.496,1.272,4.368,3.48,4.368c2.496,0,3.432-2.208,3.432-4.368
		C96.637,24.204,95.461,22.068,93.205,22.068z"/>
	<path fill="#EDEDED" d="M101.1,26.437c0-3.792,2.28-6.529,6.264-6.529s6.265,2.736,6.265,6.529c0,3.816-2.28,6.552-6.265,6.552
		S101.1,30.252,101.1,26.437z M110.893,26.437c0-2.136-1.08-4.369-3.528-4.369s-3.528,2.232-3.528,4.369
		c0,2.16,1.08,4.392,3.528,4.392S110.893,28.597,110.893,26.437z"/>
	<path fill="#EDEDED" d="M126.805,32.653h-2.688v-1.728h-0.048c-0.672,1.248-2.16,2.064-3.528,2.064
		c-3.241,0-4.633-1.632-4.633-4.873v-7.873h2.736v7.609c0,2.184,0.888,2.976,2.376,2.976c2.28,0,3.048-1.464,3.048-3.384v-7.201
		h2.736V32.653z"/>
	<path fill="#EDEDED" d="M129.683,20.244h2.592v1.824l0.048,0.048c0.816-1.368,2.232-2.208,3.864-2.208
		c2.688,0,4.392,1.44,4.392,4.225v8.521h-2.736v-7.801c-0.048-1.944-0.816-2.784-2.424-2.784c-1.824,0-3,1.44-3,3.264v7.321h-2.736
		V20.244z"/>
	<path fill="#EDEDED" d="M155.148,32.653h-2.592v-1.68h-0.048c-0.72,1.416-2.28,2.016-3.84,2.016c-3.912,0-5.809-2.904-5.809-6.625
		c0-4.488,2.665-6.457,5.376-6.457c1.561,0,3.289,0.576,4.128,1.944h0.048v-6.337h2.736V32.653z M149.028,30.829
		c2.448,0,3.48-2.232,3.48-4.392c0-2.736-1.32-4.369-3.432-4.369c-2.568,0-3.48,2.28-3.48,4.512
		C145.595,28.716,146.651,30.829,149.028,30.829z"/>
</g>
<g>
	<g>
		<path fill="#EDEDED" d="M47.39,65.598c-0.576-2.64-2.76-4.152-5.256-4.152c-4.537,0-6.457,3.792-6.457,7.537
			c0,3.745,1.92,7.537,6.457,7.537c3.168,0,5.184-2.448,5.496-5.497h1.632c-0.456,4.201-3.12,6.889-7.128,6.889
			c-5.401,0-8.089-4.248-8.089-8.929c0-4.68,2.688-8.929,8.089-8.929c3.24,0,6.457,1.944,6.888,5.544H47.39z"/>
		<path fill="#EDEDED" d="M51.469,65.166h1.392v2.904h0.048c0.768-1.992,2.448-3.168,4.68-3.072v1.512
			c-2.736-0.144-4.608,1.872-4.608,4.44v6.601h-1.512V65.166z"/>
		<path fill="#EDEDED" d="M58.302,75.875h6.297v0.812c-1.217,1.273-3.736,4.295-3.96,8.857h-0.952
			c0.238-3.316,1.315-5.765,4.03-8.857h-5.415V75.875z"/>
		<path fill="#EDEDED" d="M67.072,60.414h1.824l9.985,14.498h0.048V60.414h1.632v17.138h-1.824l-9.985-14.497h-0.048v14.497h-1.632
			V60.414z"/>
		<path fill="#EDEDED" d="M83.728,60.414h1.512v2.424h-1.512V60.414z M83.728,65.166h1.512v12.385h-1.512V65.166z"/>
	</g>
	<g>
		<path fill="#EDEDED" d="M276.262,63.99c2.64-0.096,4.272-0.144,4.729-3.24h1.224v16.801h-1.512V65.07h-4.44V63.99z"/>
	</g>
	<g>
		<path fill="#EDEDED" d="M424.419,63.99c2.64-0.096,4.272-0.144,4.729-3.24h1.224v16.801h-1.512V65.07h-4.44V63.99z"/>
		<path fill="#EDEDED" d="M435.123,77.911l7.393-17.857h1.224l-7.321,17.857H435.123z"/>
		<path fill="#EDEDED" d="M455.355,77.551h-11.064c0.119-4.993,5.232-6.216,8.088-9.073c0.912-0.936,1.393-1.824,1.393-3.168
			c0-2.184-1.729-3.432-3.768-3.432c-2.761,0-3.841,2.208-3.793,4.68h-1.512c-0.072-3.456,1.729-5.952,5.376-5.952
			c2.929,0,5.208,1.608,5.208,4.728c0,2.809-2.039,4.561-4.224,5.977c-1.632,1.104-4.632,2.592-5.04,4.849h9.336V77.551z"/>
	</g>
</g>
<g>
	<g>
		<path fill="#EDEDED" d="M47.39,106.415c-0.576-2.64-2.76-4.152-5.256-4.152c-4.537,0-6.457,3.792-6.457,7.537
			c0,3.745,1.92,7.537,6.457,7.537c3.168,0,5.184-2.448,5.496-5.497h1.632c-0.456,4.201-3.12,6.889-7.128,6.889
			c-5.401,0-8.089-4.248-8.089-8.929c0-4.68,2.688-8.929,8.089-8.929c3.24,0,6.457,1.944,6.888,5.544H47.39z"/>
		<path fill="#EDEDED" d="M51.469,105.982h1.392v2.904h0.048c0.768-1.992,2.448-3.168,4.68-3.072v1.512
			c-2.736-0.144-4.608,1.872-4.608,4.44v6.601h-1.512V105.982z"/>
		<path fill="#EDEDED" d="M58.302,116.691h6.297v0.812c-1.217,1.273-3.736,4.295-3.96,8.857h-0.952
			c0.238-3.316,1.315-5.765,4.03-8.857h-5.415V116.691z"/>
		<path fill="#EDEDED" d="M66.256,101.23h12.337v1.44l-11.281,14.305h11.521v1.392H65.488v-1.44l11.281-14.306H66.256V101.23z"/>
		<path fill="#EDEDED" d="M80.56,105.982h1.512v2.136h0.048c0.552-1.488,2.208-2.496,3.96-2.496c3.48,0,4.537,1.824,4.537,4.776
			v7.969h-1.512v-7.729c0-2.136-0.696-3.745-3.145-3.745c-2.4,0-3.84,1.824-3.888,4.249v7.225H80.56V105.982z"/>
	</g>
	<g>
		<path fill="#EDEDED" d="M286.463,110.063c0,3.937-0.96,8.665-5.857,8.665c-4.896,0-5.856-4.728-5.856-8.641
			c0-3.937,0.96-8.665,5.856-8.665C285.502,101.422,286.463,106.15,286.463,110.063z M276.262,110.063
			c0,2.928,0.504,7.393,4.344,7.393s4.345-4.464,4.345-7.393c0-2.904-0.504-7.369-4.345-7.369S276.262,107.159,276.262,110.063z"/>
	</g>
	<g>
		<path fill="#EDEDED" d="M427.266,113.015c-0.097,2.665,1.488,4.44,4.199,4.44c2.209,0,4.297-1.32,4.297-3.72
			c0-2.376-1.8-3.552-4.032-3.552h-1.272v-1.272h1.272c1.56,0.024,3.408-0.936,3.408-3.048c0-2.208-1.656-3.168-3.673-3.168
			c-2.52,0-3.863,1.752-3.815,4.249h-1.513c0.024-3.168,2.041-5.521,5.305-5.521c2.641,0,5.209,1.296,5.209,4.272
			c0,1.824-1.033,3.289-2.832,3.721v0.048c2.184,0.36,3.455,1.944,3.455,4.152c0,3.288-2.688,5.112-5.784,5.112
			c-3.479,0-5.976-2.112-5.736-5.712H427.266z"/>
		<path fill="#EDEDED" d="M437.992,118.728l7.393-17.857h1.225l-7.32,17.857H437.992z"/>
		<path fill="#EDEDED" d="M458.227,118.368h-11.065c0.12-4.993,5.232-6.216,8.089-9.073c0.912-0.936,1.392-1.824,1.392-3.168
			c0-2.184-1.728-3.432-3.769-3.432c-2.76,0-3.84,2.208-3.792,4.68h-1.513c-0.071-3.456,1.729-5.952,5.377-5.952
			c2.928,0,5.209,1.608,5.209,4.728c0,2.809-2.041,4.561-4.225,5.977c-1.633,1.104-4.633,2.592-5.041,4.849h9.338V118.368z"/>
	</g>
</g>
<g>
	<g>
		<path fill="#EDEDED" d="M47.39,147.231c-0.576-2.64-2.76-4.152-5.256-4.152c-4.537,0-6.457,3.792-6.457,7.537
			c0,3.745,1.92,7.537,6.457,7.537c3.168,0,5.184-2.448,5.496-5.497h1.632c-0.456,4.201-3.12,6.889-7.128,6.889
			c-5.401,0-8.089-4.248-8.089-8.929c0-4.68,2.688-8.929,8.089-8.929c3.24,0,6.457,1.944,6.888,5.544H47.39z"/>
		<path fill="#EDEDED" d="M51.469,146.799h1.392v2.904h0.048c0.768-1.992,2.448-3.168,4.68-3.072v1.512
			c-2.736-0.144-4.608,1.872-4.608,4.44v6.601h-1.512V146.799z"/>
		<path fill="#EDEDED" d="M58.302,157.508h6.297v0.812c-1.217,1.273-3.736,4.295-3.96,8.857h-0.952
			c0.238-3.316,1.315-5.765,4.03-8.857h-5.415V157.508z"/>
		<path fill="#EDEDED" d="M67.048,142.046h2.4l5.928,15.025l5.905-15.025h2.4v17.138H82.05v-14.809h-0.048l-5.856,14.809h-1.536
			l-5.88-14.809h-0.048v14.809h-1.632V142.046z"/>
		<path fill="#EDEDED" d="M86.776,146.799h1.512v2.136h0.048c0.552-1.488,2.208-2.496,3.96-2.496c3.48,0,4.537,1.824,4.537,4.776
			v7.969h-1.512v-7.729c0-2.136-0.696-3.745-3.145-3.745c-2.4,0-3.84,1.824-3.888,4.249v7.225h-1.512V146.799z"/>
	</g>
	<g>
		<path fill="#EDEDED" d="M265.642,154.384c0.072,2.328,1.824,3.888,4.128,3.888c2.592,0,4.201-2.136,4.201-4.584
			c0-2.472-1.8-4.368-4.296-4.368c-1.488,0-2.928,0.72-3.745,1.992h-1.296l1.632-8.713h8.4v1.392h-7.345l-1.08,5.568l0.048,0.048
			c0.84-0.984,2.256-1.561,3.552-1.561c3.456,0,5.641,2.424,5.641,5.809c0,3.289-2.617,5.688-5.833,5.688
			c-3.121,0-5.449-1.968-5.521-5.16H265.642z"/>
		<path fill="#EDEDED" d="M276.297,159.544l7.393-17.857h1.224l-7.321,17.857H276.297z"/>
		<path fill="#EDEDED" d="M296.531,159.184h-11.065c0.12-4.993,5.232-6.216,8.088-9.073c0.912-0.936,1.392-1.824,1.392-3.168
			c0-2.184-1.728-3.432-3.768-3.432c-2.76,0-3.84,2.208-3.792,4.68h-1.512c-0.072-3.456,1.729-5.952,5.376-5.952
			c2.928,0,5.208,1.608,5.208,4.728c0,2.809-2.04,4.561-4.224,5.977c-1.632,1.104-4.632,2.592-5.041,4.849h9.337V159.184z"/>
	</g>
	<g>
		<path fill="#EDEDED" d="M436.521,145.623c2.641-0.096,4.272-0.144,4.729-3.24h1.225v16.801h-1.513v-12.481h-4.44V145.623z"/>
	</g>
</g>
<g>
	<path fill="#EDEDED" d="M227.385,26.94c0,2.64,1.944,3.672,4.344,3.672c2.64,0,3.625-1.296,3.625-2.592
		c0-1.32-0.72-1.848-1.417-2.112c-1.2-0.456-2.76-0.768-5.112-1.416c-2.928-0.792-3.792-2.568-3.792-4.344
		c0-3.433,3.168-5.041,6.265-5.041c3.576,0,6.577,1.896,6.577,5.472h-3c-0.144-2.208-1.632-3.024-3.696-3.024
		c-1.392,0-3.144,0.504-3.144,2.232c0,1.2,0.816,1.872,2.04,2.208c0.264,0.072,4.057,1.056,4.944,1.32
		c2.256,0.672,3.336,2.592,3.336,4.369c0,3.84-3.408,5.376-6.816,5.376c-3.913,0-7.081-1.873-7.153-6.121H227.385z"/>
	<path fill="#EDEDED" d="M240.656,20.244h2.592v1.68h0.048c0.768-1.416,2.256-2.016,3.84-2.016c3.913,0,5.809,2.976,5.809,6.601
		c0,3.336-1.68,6.48-5.353,6.48c-1.584,0-3.288-0.576-4.152-1.944h-0.048v6.192h-2.736V20.244z M246.777,22.068
		c-2.304,0-3.48,1.752-3.48,4.393c0,2.496,1.272,4.368,3.48,4.368c2.496,0,3.432-2.208,3.432-4.368
		C250.209,24.204,249.033,22.068,246.777,22.068z"/>
	<path fill="#EDEDED" d="M255.32,15.515h2.736v2.592h-2.736V15.515z M255.32,20.244h2.736v12.409h-2.736V20.244z"/>
	<path fill="#EDEDED" d="M261.032,20.244h2.592v1.824l0.048,0.048c0.816-1.368,2.232-2.208,3.864-2.208
		c2.688,0,4.392,1.44,4.392,4.225v8.521h-2.736v-7.801c-0.048-1.944-0.816-2.784-2.424-2.784c-1.824,0-3,1.44-3,3.264v7.321h-2.736
		V20.244z"/>
	<path fill="#EDEDED" d="M280.904,26.437c0-3.792,2.28-6.529,6.264-6.529s6.265,2.736,6.265,6.529c0,3.816-2.28,6.552-6.265,6.552
		S280.904,30.252,280.904,26.437z M290.696,26.437c0-2.136-1.08-4.369-3.528-4.369s-3.528,2.232-3.528,4.369
		c0,2.16,1.08,4.392,3.528,4.392S290.696,28.597,290.696,26.437z"/>
	<path fill="#EDEDED" d="M294.487,20.244h2.041v-1.032c0-3.168,1.656-3.697,3.432-3.697c0.864,0,1.488,0.048,1.921,0.168v2.136
		c-0.361-0.096-0.721-0.144-1.273-0.144c-0.744,0-1.344,0.264-1.344,1.296v1.272h2.328v2.041h-2.328v10.369h-2.736V22.284h-2.041
		V20.244z"/>
	<path fill="#EDEDED" d="M310.279,15.515h4.225l4.729,13.417h0.047l4.609-13.417h4.176v17.138h-2.855V19.428h-0.049l-4.752,13.225
		h-2.473l-4.752-13.225h-0.049v13.225h-2.855V15.515z"/>
	<path fill="#EDEDED" d="M330.902,14.67h1.749v9.991h-1.749V14.67z"/>
	<path fill="#EDEDED" d="M334.792,14.67h1.749v9.991h-1.749V14.67z"/>
</g>
<g>
	<path fill="#EDEDED" d="M377.866,15.515h13.874v2.592h-5.449v14.545h-3V18.107h-5.425V15.515z"/>
	<path fill="#EDEDED" d="M390.106,26.437c0-3.792,2.28-6.529,6.265-6.529s6.264,2.736,6.264,6.529c0,3.816-2.279,6.552-6.264,6.552
		S390.106,30.252,390.106,26.437z M399.898,26.437c0-2.136-1.08-4.369-3.527-4.369c-2.449,0-3.529,2.232-3.529,4.369
		c0,2.16,1.08,4.392,3.529,4.392C398.818,30.829,399.898,28.597,399.898,26.437z"/>
	<path fill="#EDEDED" d="M403.666,20.244h2.064v-3.72h2.736v3.72h2.473v2.041h-2.473v6.625c0,1.128,0.096,1.704,1.32,1.704
		c0.384,0,0.768,0,1.152-0.096v2.112c-0.601,0.048-1.177,0.144-1.777,0.144c-2.855,0-3.384-1.104-3.432-3.168v-7.32h-2.064V20.244z"
		/>
	<path fill="#EDEDED" d="M423.299,29.893c0,0.672,0.145,0.936,0.648,0.936c0.168,0,0.384,0,0.672-0.048v1.896
		c-0.408,0.144-1.272,0.312-1.729,0.312c-1.104,0-1.896-0.384-2.111-1.512c-1.08,1.056-2.833,1.512-4.297,1.512
		c-2.232,0-4.248-1.2-4.248-3.624c0-3.097,2.472-3.601,4.775-3.865c1.969-0.36,3.721-0.144,3.721-1.752
		c0-1.416-1.464-1.68-2.568-1.68c-1.535,0-2.615,0.624-2.736,1.968h-2.736c0.192-3.192,2.904-4.128,5.641-4.128
		c2.424,0,4.969,0.984,4.969,3.6V29.893z M420.563,26.437c-0.84,0.552-2.16,0.528-3.36,0.744c-1.176,0.192-2.231,0.624-2.231,2.064
		c0,1.224,1.56,1.584,2.52,1.584c1.2,0,3.072-0.624,3.072-2.352V26.437z"/>
	<path fill="#EDEDED" d="M426.322,15.515h2.736v17.138h-2.736V15.515z"/>
	<path fill="#EDEDED" d="M454.043,32.653h-1.92l-0.456-2.016c-1.608,1.824-3.072,2.424-5.161,2.424
		c-5.136,0-8.208-4.081-8.208-8.977s3.072-8.977,8.208-8.977c3.745,0,6.889,1.992,7.346,5.856h-2.929
		c-0.288-2.256-2.257-3.408-4.417-3.408c-3.672,0-5.208,3.24-5.208,6.528c0,3.289,1.536,6.529,5.208,6.529
		c3.072,0.048,4.753-1.8,4.801-4.705h-4.561v-2.28h7.297V32.653z"/>
	<path fill="#EDEDED" d="M459.273,26.94c0,2.64,1.944,3.672,4.345,3.672c2.64,0,3.624-1.296,3.624-2.592
		c0-1.32-0.72-1.848-1.416-2.112c-1.199-0.456-2.76-0.768-5.112-1.416c-2.929-0.792-3.792-2.568-3.792-4.344
		c0-3.433,3.168-5.041,6.264-5.041c3.576,0,6.577,1.896,6.577,5.472h-3.001c-0.143-2.208-1.631-3.024-3.695-3.024
		c-1.393,0-3.145,0.504-3.145,2.232c0,1.2,0.816,1.872,2.04,2.208c0.265,0.072,4.057,1.056,4.944,1.32
		c2.256,0.672,3.336,2.592,3.336,4.369c0,3.84-3.408,5.376-6.816,5.376c-3.912,0-7.08-1.873-7.152-6.121H459.273z"/>
	<path fill="#EDEDED" d="M481.209,28.668c0.145,1.584,1.345,2.16,2.809,2.16c1.032,0,2.832-0.216,2.76-1.632
		c-0.071-1.44-2.063-1.608-4.056-2.064c-2.017-0.432-3.984-1.152-3.984-3.672c0-2.712,2.929-3.552,5.185-3.552
		c2.544,0,4.848,1.056,5.184,3.816h-2.855c-0.24-1.296-1.32-1.656-2.521-1.656c-0.792,0-2.256,0.192-2.256,1.272
		c0,1.344,2.017,1.536,4.032,1.992c1.992,0.456,4.008,1.176,4.008,3.625c0,2.952-2.977,4.032-5.544,4.032
		c-3.12,0-5.448-1.392-5.497-4.32H481.209z"/>
	<path fill="#EDEDED" d="M491.674,20.244h2.592v1.68h0.048c0.769-1.416,2.257-2.016,3.841-2.016c3.912,0,5.809,2.976,5.809,6.601
		c0,3.336-1.681,6.48-5.354,6.48c-1.584,0-3.287-0.576-4.152-1.944h-0.047v6.192h-2.736V20.244z M497.794,22.068
		c-2.304,0-3.48,1.752-3.48,4.393c0,2.496,1.272,4.368,3.48,4.368c2.496,0,3.433-2.208,3.433-4.368
		C501.227,24.204,500.05,22.068,497.794,22.068z"/>
	<path fill="#EDEDED" d="M506.337,15.515h2.736v2.592h-2.736V15.515z M506.337,20.244h2.736v12.409h-2.736V20.244z"/>
	<path fill="#EDEDED" d="M512.049,20.244h2.592v1.824l0.049,0.048c0.816-1.368,2.232-2.208,3.864-2.208
		c2.688,0,4.392,1.44,4.392,4.225v8.521h-2.736v-7.801c-0.047-1.944-0.815-2.784-2.424-2.784c-1.824,0-3,1.44-3,3.264v7.321h-2.736
		V20.244z"/>
</g>
<line fill="#EDEDED" stroke="#EDEDED" stroke-width="2" stroke-miterlimit="10" x1="33.133" y1="45.918" x2="531.755" y2="45.918"/>
</svg>
